# AST/ASF file generated using VICON BodyLanguage
# -----------------------------------------------
:version 1.10
:name VICON
:units
  mass 1.0
  length 0.45
  angle deg
:documentation
   .ast/.asf automatically generated from VICON data using
   VICON BodyBuilder and BodyLanguage model FoxedUp or BRILLIANT.MOD
:root
   order TX TY TZ RX RY RZ
   axis XYZ
   position 0 0 0  
   orientation 0 0 0 
:bonedata
  begin
     id 1 
     name lhipjoint
     direction 0.578396 -0.714046 0.394458 
     length 2.21935 
     axis 0 0 0  XYZ
  end
  begin
     id 2 
     name lfemur
     direction 0.34202 -0.939693 0  
     length 6.39105  
     axis 0 0 20  XYZ
    dof rx ry rz
    limits (-160.0 20.0)
           (-70.0 70.0)
           (-60.0 70.0)
  end
  begin
     id 3 
     name ltibia
     direction 0.34202 -0.939693 0   
     length 6.99037   
     axis 0 0 20   XYZ
    dof rx
    limits (-10.0 170.0)
  end
  begin
     id 4 
     name lfoot
     direction 0.0582372 -0.160005 0.985397   
     length 2.06111   
     axis -90 7.62852e-016 20   XYZ
    dof rx rz
    limits (-45.0 90.0)
           (-70.0 20.0)
  end
  begin
     id 5 
     name ltoes
     direction 1.53556e-011 -4.21875e-011 1   
     length 1.04074   
     axis -90 7.62852e-016 20   XYZ
    dof rx
    limits (-90.0 20.0)
  end
  begin
     id 6 
     name rhipjoint
     direction -0.558179 -0.726269 0.40121   
     length 2.182  
     axis 0 0 0  XYZ 
  end
  begin
     id 7 
     name rfemur
     direction -0.34202 -0.939693 0   
     length 6.51172   
     axis 0 0 -20   XYZ
    dof rx ry rz
    limits (-160.0 20.0)
           (-70.0 70.0)
           (-70.0 60.0)
  end
  begin
     id 8 
     name rtibia
     direction -0.34202 -0.939693 0   
     length 7.02607   
     axis 0 0 -20   XYZ
    dof rx
    limits (-10.0 170.0)
 end
 begin
     id 9 
     name rfoot
     direction -0.0788856 -0.216737 0.973038   
     length 1.96734  
     axis -90 -7.62852e-016 -20   XYZ
    dof rx rz
    limits (-45.0 90.0)
           (-20.0 70.0)
  end
  begin
     id 10 
     name rtoes
     direction -1.53567e-011 -4.21783e-011 1   
     length 0.990825   
     axis -90 -7.62852e-016 -20   XYZ
    dof rx
    limits (-90.0 20.0)
  end
  begin
     id 11 
     name lowerback
     direction 0.00668177 0.999323 -0.0361741   
     length 1.7655   
     axis 0 0 0   XYZ
    dof rx ry rz
    limits (-20.0 45.0)
           (-30.0 30.0)
           (-30.0 30.0)
  end
  begin
     id 12 
     name upperback
     direction -0.00222086 0.99851 0.0545167   
     length 1.74912   
     axis 0 0 0   XYZ
    dof rx ry rz
    limits (-20.0 45.0)
           (-30.0 30.0)
           (-30.0 30.0)
  end
  begin
     id 13 
     name thorax
     direction -0.00733971 0.997496 0.0703443   
     length 1.75715   
     axis 0 0 0   XYZ
    dof rx ry rz
    limits (-20.0 45.0)
           (-30.0 30.0)
           (-30.0 30.0)
  end
  begin
     id 14 
     name lowerneck
     direction 0.0279797 0.994795 0.0979765   
     length 1.46939   
     axis 0 0 0   XYZ
    dof rx ry rz
    limits (-20.0 45.0)
           (-30.0 30.0)
           (-30.0 30.0)
  end
  begin
     id 15 
     name upperneck
     direction 0.00339187 0.976776 -0.214238   
     length 1.48018   
     axis 0 0 0   XYZ
    dof rx ry rz
    limits (-20.0 45.0)
           (-30.0 30.0)
           (-30.0 30.0)
  end
  begin
     id 16
     name head
     direction -0.00263506 0.996603 -0.0823096  
     length 1.4976  
     axis 0 0 0   XYZ
    dof rx ry rz
    limits (-20.0 45.0)
           (-30.0 30.0)
           (-30.0 30.0)
  end
  begin
     id 17 
     name lclavicle
     direction 0.894044 0.44508 -0.0508781  
     length 3.03024  
     axis 0 0 0   XYZ
    dof ry rz
    limits (-20.0 10.0)
           (0.0 20.0)
  end
  begin
     id 18 
     name lhumerus
     direction 1 -4.48961e-011 -2.39475e-018   
     length 4.4661   
     axis 180 -30 -90   XYZ
    dof rx ry rz
    limits (-60.0 90.0)
           (-90.0 90.0)
           (-90.0 90.0)
  end
  begin
     id 19
     name lradius
     direction 1 -4.48961e-011 9.29328e-028   
     length 3.41414   
     axis 180 -30 -90   XYZ
    dof rx
    limits (-10.0 170.0)
  end
  begin
     id 20
     name lwrist
     direction 1 -4.48985e-011 1.53461e-026   
     length 1.70707   
     axis -1.09697e-014 90 90   XYZ
    dof ry
    limits (-180.0 0.0)
 end
  begin
     id 21 
     name lhand
     direction 1 -4.48966e-011 3.06923e-026   
     length 0.328298   
     axis -1.95843e-014 90 90   XYZ
    dof rx rz
    limits (-90.0 90.0)
           (-45.0 45.0)
  end
  begin
     id 22 
     name lfingers
     direction 1 -4.48893e-011 6.13845e-026   
     length 0.264682   
     axis -3.91686e-014 90 90   XYZ
    dof rx
    limits (0.0 90.0)
  end
  begin
     id 23
     name lthumb
     direction 0.707107 -6.34876e-011 0.707107   
     length 0.380032   
     axis -90 45 2.85299e-015   XYZ
    dof rx rz
    limits (-45.0 45.0)
           (-45.0 45.0)
  end
  begin
     id 24 
     name rclavicle
     direction -0.936955 0.347862 -0.0332887   
     length 3.26927  
     axis 0 0 0   XYZ 
    dof ry rz
    limits (-10.0 20.0)
           (-20.0 0.0)
  end
  begin
     id 25 
     name rhumerus
     direction -1 -4.4896e-011 1.78637e-018  
     length 4.40431   
     axis 180 30 90   XYZ
    dof rx ry rz
    limits (-90.0 60.0)
           (-90.0 90.0)
           (-90.0 90.0)
  end
  begin
     id 26 
     name rradius
     direction -1 -4.48955e-011 9.34036e-027   
     length 3.04688   
     axis 180 30 90   XYZ
    dof rx
    limits (-10.0 170.0)
  end
  begin
     id 27 
     name rwrist
     direction -1 -4.49011e-011 1.53461e-026   
     length 1.52344   
     axis -1.09697e-014 -90 -90   XYZ
    dof ry
    limits (-180.0 0.0)
  end
  begin
     id 28
     name rhand
     direction -1 -4.48834e-011 3.06923e-026   
     length 0.500489   
     axis -1.95843e-014 -90 -90   XYZ
    dof rx rz
    limits (-90.0 90.0)
           (-45.0 45.0)
  end
  begin
     id 29
     name rfingers
     direction -1 -4.48967e-011 6.13845e-026   
     length 0.403507   
     axis -3.91686e-014 -90 -90   XYZ
    dof rx
    limits (0.0 90.0)
  end
  begin
     id 30
     name rthumb
     direction -0.707107 -6.34826e-011 0.707107   
     length 0.579358   
     axis -90 -45 -2.85299e-015   XYZ
    dof rx rz
    limits (-45.0 45.0)
           (-45.0 45.0)
  end
:hierarchy
  begin
    root lhipjoint rhipjoint lowerback
    lhipjoint lfemur
    lfemur ltibia
    ltibia lfoot
    lfoot ltoes
    rhipjoint rfemur
    rfemur rtibia
    rtibia rfoot
    rfoot rtoes
    lowerback upperback
    upperback thorax
    thorax lowerneck lclavicle rclavicle
    lowerneck upperneck
    upperneck head
    lclavicle lhumerus
    lhumerus lradius
    lradius lwrist
    lwrist lhand lthumb
    lhand lfingers
    rclavicle rhumerus
    rhumerus rradius
    rradius rwrist
    rwrist rhand rthumb
    rhand rfingers
  end

#!OML:ASF H:\IndianDance\Patient Classification 1\Patient 1\Session 1\dancer.ASF
:FULLY-SPECIFIED
:DEGREES
708
root -0.866075 14.4947 4.84209 -171.627 -1.0094 -176.855
lowerback 5.0969 1.92099 1.71453
upperback -8.4337 2.33875 0.959222
thorax -11.902 0.789866 -0.228015
lowerneck -11.7185 -11.4854 -7.94899
upperneck 18.1427 -15.7672 4.24846
head 8.53847 -7.81737 0.837032
rclavicle -2.5373e-014 -1.18277e-014
rhumerus 14.0081 8.11895 -21.9037
rradius 22.4818
rwrist 28.5949
rhand -49.464 18.9847
rfingers 7.12502
rthumb -22.0746 -9.77528
lclavicle -2.5373e-014 -1.18277e-014
lhumerus -21.2037 -2.98192 13.7472
lradius 23.6013
lwrist -6.27477
lhand 23.63 -332.956
lfingers 7.12502
lthumb 47.9004 -310.697
rfemur -32.4417 -12.9144 2.09242
rtibia 43.1897
rfoot -2.07273 -7.63909
rtoes -8.62611
lfemur -22.9173 20.7565 -6.18843
ltibia 49.2975
lfoot -22.0403 3.52608
ltoes -11.3462
709
root -0.737429 14.4954 4.80926 -171.556 -1.1102 -176.991
lowerback 5.14696 1.93517 1.64134
upperback -8.42967 2.33969 0.755728
thorax -11.9215 0.789044 -0.409497
lowerneck -11.7351 -11.487 -7.97065
upperneck 18.0477 -15.7524 4.30589
head 8.51527 -7.80206 0.862714
rclavicle 2.20806e-014 8.27441e-015
rhumerus 13.6345 9.13965 -21.0943
rradius 21.4964
rwrist 27.9975
rhand -49.0486 17.8902
rfingers 7.12502
rthumb -21.6757 -10.9164
lclavicle 2.20806e-014 8.27441e-015
lhumerus -20.7046 -2.76745 13.7399
lradius 23.5926
lwrist -6.38066
lhand 23.3333 -332.99
lfingers 7.12502
lthumb 47.6267 -310.604
rfemur -32.5054 -13.6325 2.72063
rtibia 43.6637
rfoot -3.39323 -8.20226
rtoes -8.92682
lfemur -22.6197 20.7193 -5.75125
ltibia 48.7559
lfoot -21.5689 3.48626
ltoes -11.8433
710
root -0.605722 14.4995 4.77639 -171.498 -1.25112 -177.129
lowerback 5.22097 1.94147 1.5637
upperback -8.41408 2.33126 0.552966
thorax -11.943 0.784813 -0.587079
lowerneck -11.7565 -11.4883 -8.01814
upperneck 17.929 -15.7387 4.41103
head 8.49129 -7.78403 0.907395
rclavicle -3.13645e-014 -1.2424e-014
rhumerus 13.1471 10.4617 -20.2425
rradius 20.9172
rwrist 27.051
rhand -48.7721 16.8616
rfingers 7.12502
rthumb -21.4102 -11.9754
lclavicle -3.13645e-014 -1.2424e-014
lhumerus -20.2356 -2.50809 13.7535
lradius 23.6087
lwrist -6.40934
lhand 22.9754 -333.016
lfingers 7.12502
lthumb 47.2961 -310.482
rfemur -32.6174 -14.3877 3.36239
rtibia 44.1736
rfoot -4.63143 -8.55051
rtoes -8.65243
lfemur -22.2869 20.6498 -5.29766
ltibia 48.1427
lfoot -21.057 3.329
ltoes -11.8855
711
root -0.471144 14.5068 4.74282 -171.45 -1.42624 -177.256
lowerback 5.30248 1.94102 1.49123
upperback -8.38537 2.31568 0.356283
thorax -11.9544 0.777671 -0.76011
lowerneck -11.7853 -11.4876 -8.08963
upperneck 17.7946 -15.7225 4.55375
head 8.46848 -7.76242 0.967666
rclavicle 4.50993e-015 5.56597e-015
rhumerus 12.598 11.6058 -19.5622
rradius 20.6044
rwrist 26.199
rhand -48.6476 16.031
rfingers 7.12502
rthumb -21.2906 -12.8195
lclavicle 4.50993e-015 5.56597e-015
lhumerus -19.8048 -2.23177 13.7869
lradius 23.6496
lwrist -6.34625
lhand 22.5712 -333.027
lfingers 7.12502
lthumb 46.9224 -310.327
rfemur -32.7551 -15.1386 4.01538
rtibia 44.6638
rfoot -5.78018 -8.72722
rtoes -8.14366
lfemur -21.9203 20.562 -4.81487
ltibia 47.4638
lfoot -20.4959 3.09125
ltoes -11.6861
712
root -0.333663 14.5162 4.70806 -171.413 -1.62674 -177.368
lowerback 5.37827 1.92987 1.41905
upperback -8.34457 2.28691 0.172973
thorax -11.9496 0.765416 -0.916538
lowerneck -11.8126 -11.4753 -8.17393
upperneck 17.644 -15.6904 4.71831
head 8.44185 -7.7322 1.03937
rclavicle -1.18525e-014 -1.98785e-016
rhumerus 12.0351 12.2818 -19.1726
rradius 20.4541
rwrist 25.6845
rhand -48.6653 15.4501
rfingers 7.12502
rthumb -21.3076 -13.3985
lclavicle -1.18525e-014 -1.98785e-016
lhumerus -19.4352 -1.91913 13.8275
lradius 23.7067
lwrist -6.23921
lhand 22.0796 -333.035
lfingers 7.12502
lthumb 46.4672 -310.137
rfemur -32.8992 -15.8581 4.67238
rtibia 45.1193
rfoot -6.82018 -8.77963
rtoes -7.40872
lfemur -21.5217 20.4724 -4.29549
ltibia 46.7304
lfoot -19.879 2.7825
ltoes -11.3289
713
root -0.193056 14.5271 4.67211 -171.38 -1.85025 -177.463
lowerback 5.43485 1.90788 1.34968
upperback -8.29128 2.24465 0.00249105
thorax -11.9195 0.747704 -1.05775
lowerneck -11.8424 -11.4478 -8.27025
upperneck 17.4864 -15.6362 4.89535
head 8.41382 -7.69106 1.11979
rclavicle 6.21202e-016 1.98785e-015
rhumerus 11.4869 12.4361 -19.0709
rradius 20.3987
rwrist 25.512
rhand -48.7887 15.1712
rfingers 7.12502
rthumb -21.4261 -13.664
lclavicle 6.21202e-016 1.98785e-015
lhumerus -19.1198 -1.57106 13.8649
lradius 23.7702
lwrist -6.1167
lhand 21.5395 -333.042
lfingers 7.12502
lthumb 45.9665 -309.934
rfemur -33.0405 -16.5246 5.32704
rtibia 45.5562
rfoot -7.75914 -8.77075
rtoes -6.71809
lfemur -21.1053 20.3965 -3.73572
ltibia 45.9595
lfoot -19.1984 2.39952
ltoes -10.8595
714
root -0.0490981 14.5383 4.63492 -171.352 -2.08624 -177.547
lowerback 5.46753 1.87303 1.26247
upperback -8.23048 2.18359 -0.150708
thorax -11.8683 0.723682 -1.16637
lowerneck -11.8702 -11.3923 -8.35376
upperneck 17.3301 -15.5415 5.05223
head 8.38021 -7.63214 1.19767
rclavicle -2.50717e-014 -1.23246e-014
rhumerus 10.988 12.3067 -19.1449
rradius 20.4216
rwrist 25.4661
rhand -48.9889 15.1433
rfingers 7.12502
rthumb -21.6184 -13.6699
lclavicle -2.50717e-014 -1.23246e-014
lhumerus -18.8696 -1.15489 13.8887
lradius 23.827
lwrist -6.04323
lhand 20.9549 -333.049
lfingers 7.12502
lthumb 45.4235 -309.719
rfemur -33.1749 -17.1274 5.9668
rtibia 46.0058
rfoot -8.6246 -8.71505
rtoes -6.3527
lfemur -20.6791 20.3537 -3.13864
ltibia 45.1695
lfoot -18.4458 1.95755
ltoes -10.3983
715
root 0.0980837 14.5488 4.5967 -171.325 -2.32871 -177.637
lowerback 5.47624 1.82547 1.14219
upperback -8.16877 2.10102 -0.292473
thorax -11.804 0.692528 -1.23984
lowerneck -11.8956 -11.3 -8.40976
upperneck 17.1914 -15.3956 5.17014
head 8.34264 -7.55148 1.26599
rclavicle 1.94809e-014 1.31198e-014
rhumerus 10.5598 12.1148 -19.2934
rradius 20.4975
rwrist 25.3953
rhand -49.2199 15.3249
rfingers 7.12502
rthumb -21.8402 -13.4626
lclavicle 1.94809e-014 1.31198e-014
lhumerus -18.6798 -0.671562 13.8888
lradius 23.8697
lwrist -6.04573
lhand 20.3513 -333.057
lfingers 7.12502
lthumb 44.8622 -309.504
rfemur -33.3103 -17.6691 6.57148
rtibia 46.4988
rfoot -9.43382 -8.59751
rtoes -6.29175
lfemur -20.2579 20.3538 -2.52418
ltibia 44.3787
lfoot -17.6096 1.47894
ltoes -10.112
716
root 0.248545 14.558 4.55773 -171.294 -2.57113 -177.742
lowerback 5.46344 1.76672 0.974416
upperback -8.11137 1.99679 -0.425365
thorax -11.7343 0.654808 -1.27298
lowerneck -11.9272 -11.1649 -8.42638
upperneck 17.0883 -15.1888 5.22542
head 8.30513 -7.44547 1.31583
rclavicle 1.44367e-014 -1.03368e-014
rhumerus 10.2125 11.9507 -19.4699
rradius 20.5914
rwrist 25.3151
rhand -49.4098 15.5724
rfingers 7.12502
rthumb -22.0225 -13.1938
lclavicle 1.44367e-014 -1.03368e-014
lhumerus -18.5401 -0.0773123 13.8611
lradius 23.885
lwrist -6.18748
lhand 19.7376 -333.067
lfingers 7.12502
lthumb 44.2905 -309.294
rfemur -33.4639 -18.1586 7.13499
rtibia 47.0579
rfoot -10.208 -8.43326
rtoes -6.49715
lfemur -19.8557 20.409 -1.90547
ltibia 43.6055
lfoot -16.6822 0.964455
ltoes -10.0533
717
root 0.401891 14.5657 4.51829 -171.254 -2.80946 -177.888
lowerback 5.431 1.70011 0.738383
upperback -8.06323 1.87161 -0.559732
thorax -11.6661 0.611618 -1.26567
lowerneck -11.9809 -10.9864 -8.3967
upperneck 17.0454 -14.9222 5.21141
head 8.27793 -7.3145 1.3422
rclavicle -4.11733e-014 -8.34896e-015
rhumerus 9.94096 11.762 -19.6916
rradius 20.66
rwrist 25.3628
rhand -49.5434 15.8356
rfingers 7.12502
rthumb -22.1508 -12.9154
lclavicle -4.11733e-014 -8.34896e-015
lhumerus -18.4387 0.59405 13.8071
lradius 23.8787
lwrist -6.44683
lhand 19.122 -333.074
lfingers 7.12502
lthumb 43.7163 -309.086
rfemur -33.6553 -18.6104 7.63461
rtibia 47.6941
rfoot -10.9658 -8.23273
rtoes -6.77811
lfemur -19.491 20.5322 -1.31853
ltibia 42.8685
lfoot -15.6591 0.436671
ltoes -10.4095
718
root 0.557605 14.5719 4.47874 -171.199 -3.04129 -178.087
lowerback 5.38734 1.6286 0.426984
upperback -8.02903 1.72807 -0.699367
thorax -11.6096 0.564125 -1.21877
lowerneck -12.0766 -10.7662 -8.31894
upperneck 17.09 -14.5971 5.11462
head 8.273 -7.15983 1.33837
rclavicle -1.93815e-015 -1.19271e-015
rhumerus 9.73609 11.5738 -19.9315
rradius 20.6901
rwrist 25.5449
rhand -49.6174 16.0586
rfingers 7.12502
rthumb -22.2218 -12.6839
lclavicle -1.93815e-015 -1.19271e-015
lhumerus -18.3658 1.34047 13.7345
lradius 23.8503
lwrist -6.82748
lhand 18.5287 -333.077
lfingers 7.12502
lthumb 43.162 -308.888
rfemur -33.8971 -19.0465 8.06924
rtibia 48.4075
rfoot -11.7125 -8.00356
rtoes -6.96708
lfemur -19.1779 20.719 -0.775924
ltibia 42.1874
lfoot -14.5391 -0.171728
ltoes -10.7263
719
root 0.715042 14.5765 4.43926 -171.126 -3.27426 -178.342
lowerback 5.33263 1.55649 0.0484515
upperback -8.00931 1.57181 -0.853697
thorax -11.5643 0.513672 -1.14798
lowerneck -12.2309 -10.5118 -8.19467
upperneck 17.2333 -14.2257 4.94698
head 8.29981 -6.98608 1.3054
rclavicle 1.2921e-015 1.51076e-014
rhumerus 9.56736 11.3503 -20.1936
rradius 20.6769
rwrist 25.873
rhand -49.6552 16.2286
rfingers 7.12502
rthumb -22.2582 -12.5096
lclavicle 1.2921e-015 1.51076e-014
lhumerus -18.2903 2.13248 13.6497
lradius 23.8008
lwrist -7.2976
lhand 17.959 -333.08
lfingers 7.12502
lthumb 42.6293 -308.704
rfemur -34.1934 -19.4911 8.44316
rtibia 49.1879
rfoot -12.4414 -7.75183
rtoes -7.05125
lfemur -18.9417 20.9788 -0.295437
ltibia 41.5839
lfoot -13.3197 -0.826652
ltoes -11.2085
720
root 0.873576 14.5799 4.39989 -171.035 -3.51015 -178.652
lowerback 5.26928 1.48584 -0.385252
upperback -8.00142 1.40707 -1.02433
thorax -11.5281 0.461258 -1.06245
lowerneck -12.4512 -10.23 -8.0335
upperneck 17.4768 -13.8179 4.72235
head 8.36364 -6.79739 1.24734
rclavicle 2.74323e-014 -1.74931e-014
rhumerus 9.42141 11.0612 -20.4823
rradius 20.6243
rwrist 26.318
rhand -49.6806 16.3369
rfingers 7.12502
rthumb -22.2826 -12.3985
lclavicle 2.74323e-014 -1.74931e-014
lhumerus -18.2029 2.9493 13.5616
lradius 23.734
lwrist -7.8235
lhand 17.4242 -333.085
lfingers 7.12502
lthumb 42.1284 -308.538
rfemur -34.5354 -19.9529 8.76806
rtibia 50.016
rfoot -13.1589 -7.49491
rtoes -6.93662
lfemur -18.7944 21.3144 0.124371
ltibia 41.0819
lfoot -11.9954 -1.57334
ltoes -11.4561
721
root 1.0323 14.5823 4.36069 -170.927 -3.75918 -179
lowerback 5.20013 1.42057 -0.845247
upperback -8.00236 1.24282 -1.21086
thorax -11.498 0.408934 -0.979371
lowerneck -12.7467 -9.93458 -7.85262
upperneck 17.8165 -13.3924 4.46405
head 8.47006 -6.60167 1.1714
rclavicle -1.95306e-014 7.95139e-016
rhumerus 9.27307 10.6678 -20.7934
rradius 20.5378
rwrist 26.8599
rhand -49.7178 16.4177
rfingers 7.12502
rthumb -22.3182 -12.3134
lclavicle -1.95306e-014 7.95139e-016
lhumerus -18.0801 3.74736 13.4849
lradius 23.6517
lwrist -8.3488
lhand 16.9532 -333.085
lfingers 7.12502
lthumb 41.6869 -308.391
rfemur -34.9077 -20.4423 9.0658
rtibia 50.8672
rfoot -13.8745 -7.25215
rtoes -6.61569
lfemur -18.7557 21.7239 0.493753
ltibia 40.704
lfoot -10.5686 -2.40205
ltoes -11.432
722
root 1.19056 14.5836 4.32169 -170.805 -4.02794 -179.361
lowerback 5.12803 1.35744 -1.30436
upperback -8.00969 1.07858 -1.40766
thorax -11.4725 0.354655 -0.907927
lowerneck -13.0912 -9.62726 -7.6595
upperneck 18.2153 -12.955 4.2027
head 8.60586 -6.40026 1.09034
rclavicle -1.45113e-014 2.62396e-014
rhumerus 9.11574 10.22 -21.1072
rradius 20.4406
rwrist 27.4075
rhand -49.7802 16.4673
rfingers 7.12502
rthumb -22.3781 -12.2565
lclavicle -1.45113e-014 2.62396e-014
lhumerus -17.9228 4.50583 13.4187
lradius 23.5521
lwrist -8.84508
lhand 16.4901 -333.097
lfingers 7.12502
lthumb 41.2524 -308.261
rfemur -35.2899 -20.9617 9.36305
rtibia 51.7159
rfoot -14.5971 -7.03426
rtoes -6.08838
lfemur -18.8379 22.2071 0.834251
ltibia 40.4712
lfoot -9.04495 -3.301
ltoes -11.0725
